<?xml version="1.0" standalone="no"?>
<!DOCTYPE svg PUBLIC "-//W3C//DTD SVG 20010904//EN"
 "http://www.w3.org/TR/2001/REC-SVG-20010904/DTD/svg10.dtd">
<svg version="1.0" xmlns="http://www.w3.org/2000/svg"
 width="980.000000pt" height="1001.000000pt" viewBox="0 0 980.000000 1001.000000"
 preserveAspectRatio="xMidYMid meet">
<metadata>
Created by potrace 1.16, written by Peter Selinger 2001-2019
</metadata>
<g transform="translate(0.000000,1001.000000) scale(0.100000,-0.100000)"
fill="#000000" stroke="none">
<path d="M4730 9665 c-6 -16 -10 -696 -10 -1826 0 -991 -3 -1805 -6 -1810 -15
-26 -49 2 -122 99 -104 139 -357 396 -429 436 -10 5 -20 12 -23 16 -3 4 -21
18 -41 31 -19 14 -55 41 -80 61 -24 20 -75 53 -114 73 -38 21 -104 56 -145 80
-41 23 -102 52 -135 64 -33 13 -73 29 -90 36 -48 21 -106 41 -167 59 -32 9
-82 23 -110 31 -266 75 -802 93 -1023 34 -22 -6 -62 -15 -90 -19 -64 -10 -177
-40 -190 -51 -6 -4 -30 -11 -53 -15 -23 -4 -45 -11 -48 -15 -3 -5 -12 -9 -20
-9 -30 0 -285 -118 -351 -162 -23 -15 -44 -28 -48 -28 -5 0 -104 -65 -216
-141 -158 -109 -436 -401 -560 -589 -446 -674 -533 -1504 -237 -2250 80 -202
220 -441 366 -624 40 -51 224 -240 302 -310 104 -95 344 -254 490 -326 80 -40
129 -62 245 -110 44 -18 148 -50 163 -50 8 0 28 -7 45 -15 18 -8 59 -19 92
-25 33 -5 116 -20 185 -32 102 -17 167 -21 350 -22 220 -1 315 8 500 45 99 20
315 87 370 114 14 7 43 18 65 25 58 18 245 112 332 167 75 48 277 196 343 252
40 35 37 50 -21 89 -70 46 -128 124 -153 205 -3 9 -11 17 -18 17 -8 0 -58 -37
-113 -83 -110 -90 -136 -109 -271 -189 -164 -98 -413 -196 -589 -231 -222 -45
-271 -50 -455 -49 -255 0 -445 31 -690 113 -120 39 -332 141 -405 194 -16 11
-55 36 -85 54 -30 19 -84 59 -120 90 -36 31 -78 67 -95 81 -68 58 -240 248
-290 323 -90 134 -147 228 -186 307 -16 32 -29 63 -29 69 0 5 -13 38 -29 73
-87 189 -151 521 -151 778 0 128 31 360 64 493 22 87 40 140 116 340 10 26 30
67 43 90 14 23 37 65 52 92 40 73 93 154 135 205 21 25 55 68 75 95 85 112
262 273 425 386 41 29 147 89 235 134 306 157 642 234 975 222 172 -6 301 -22
353 -42 20 -8 54 -15 75 -15 43 0 291 -84 379 -128 135 -68 197 -104 290 -165
54 -36 107 -74 118 -84 11 -10 42 -35 68 -56 56 -46 172 -162 222 -223 20 -24
41 -49 48 -56 11 -11 66 -86 124 -168 79 -111 195 -350 256 -530 31 -92 77
-293 77 -337 0 -58 24 -172 37 -177 7 -3 26 6 42 19 16 14 36 25 44 25 8 0 31
7 50 15 20 8 65 15 99 15 35 0 70 5 78 10 13 8 15 285 17 2377 1 1302 -1 2386
-5 2408 l-7 40 -158 3 -157 3 -10 -26z"/>
<path d="M4190 9633 c-25 -2 -74 -10 -110 -17 -36 -8 -101 -22 -145 -31 -91
-19 -137 -30 -215 -51 -30 -8 -80 -21 -110 -29 -80 -20 -148 -41 -210 -65 -30
-11 -89 -33 -130 -47 -299 -103 -799 -368 -1062 -563 -34 -25 -89 -65 -122
-89 -239 -172 -624 -552 -848 -834 -60 -76 -119 -158 -189 -264 -145 -217
-160 -242 -193 -304 -19 -35 -55 -104 -81 -154 -126 -240 -310 -684 -290 -703
6 -6 89 79 134 138 14 19 73 81 131 137 97 95 151 140 252 208 35 23 65 61 99
127 66 126 99 180 232 378 176 262 458 582 697 791 47 41 87 76 90 79 9 9 95
76 200 156 124 94 306 216 405 270 39 20 84 46 100 56 60 36 378 188 394 188
6 0 32 10 58 21 64 29 81 36 128 52 22 8 81 28 130 46 147 52 375 110 591 150
107 20 144 34 145 54 0 7 0 73 -1 147 -1 122 -9 164 -29 158 -3 -1 -26 -3 -51
-5z"/>
<path d="M5529 9629 c-10 -6 -15 -4782 -4 -4798 2 -4 72 -7 155 -7 138 1 153
3 166 20 12 17 14 169 14 1003 0 961 0 983 19 993 13 6 219 10 598 10 318 0
587 3 598 6 22 5 30 17 112 164 29 52 52 102 51 110 -3 13 -88 15 -684 18
-584 2 -683 4 -694 17 -9 11 -12 218 -11 897 1 486 4 943 8 1016 8 174 -1 169
204 109 155 -46 300 -94 374 -126 37 -16 59 -25 168 -68 54 -21 376 -180 392
-193 7 -6 50 -32 96 -58 146 -82 499 -332 569 -402 3 -3 43 -39 90 -80 47 -41
94 -84 105 -95 11 -11 52 -50 92 -88 l72 -67 200 0 c225 0 229 2 182 67 -41
56 -404 418 -490 488 -40 33 -85 70 -100 83 -113 100 -433 322 -578 401 -59
32 -133 73 -163 90 -86 49 -202 108 -230 116 -14 4 -61 24 -105 45 -134 62
-144 66 -330 130 -213 73 -258 87 -348 105 -37 8 -71 16 -76 19 -4 3 -32 10
-62 15 -103 19 -201 41 -211 47 -15 9 -167 21 -179 13z"/>
<path d="M8326 7652 c-2 -4 21 -42 52 -84 171 -233 317 -488 457 -798 73 -163
75 -167 75 -179 0 -5 24 -77 54 -158 47 -131 65 -191 96 -323 5 -19 15 -62 24
-95 34 -130 86 -469 97 -625 6 -91 11 -248 11 -350 0 -102 5 -194 10 -204 10
-18 20 -18 160 -14 111 4 153 9 160 19 12 17 3 431 -12 614 -6 72 -18 168 -25
215 -8 47 -17 108 -20 135 -8 68 -33 198 -51 265 -8 30 -18 73 -23 95 -31 137
-127 451 -141 460 -4 3 -11 17 -14 32 -12 47 -127 327 -142 344 -8 8 -14 21
-14 27 0 17 -92 197 -160 312 -33 56 -60 103 -60 105 0 6 -68 113 -98 155 -19
25 -41 48 -50 52 -24 9 -380 10 -386 0z"/>
<path d="M7225 4460 c-2438 -6 -2214 1 -2375 -81 -221 -112 -347 -332 -379
-660 -8 -83 -7 -135 4 -239 24 -210 70 -333 170 -451 16 -20 39 -48 49 -62 10
-15 25 -27 32 -27 7 0 23 -13 36 -29 35 -46 192 -124 338 -169 93 -28 270 -33
1360 -35 l1115 -2 60 -22 c90 -34 162 -114 194 -219 14 -44 26 -109 28 -146 3
-81 -27 -229 -61 -303 -28 -63 -119 -155 -180 -184 -113 -52 -89 -52 -1340
-49 l-1158 3 -82 86 c-84 89 -156 210 -156 262 0 16 -8 30 -19 37 -19 10 -362
12 -388 2 -15 -5 -17 -34 -4 -76 43 -138 57 -178 82 -223 15 -29 37 -65 48
-80 12 -16 31 -41 44 -58 27 -35 103 -110 149 -146 41 -32 163 -90 254 -121
l69 -23 1284 -3 c1278 -2 1283 -2 1361 19 191 51 332 205 399 434 44 151 49
192 47 369 -1 99 -7 192 -15 221 -38 148 -56 195 -126 322 -17 31 -83 102
-131 140 -38 30 -75 47 -164 76 -25 8 -401 13 -1310 17 l-1275 5 -50 27 c-50
26 -119 91 -168 159 -62 83 -104 291 -94 456 8 116 42 215 99 291 37 48 58 64
133 102 l90 45 1930 3 c1630 2 1934 0 1950 -12 18 -13 18 -16 -9 -117 -71
-269 -169 -550 -256 -734 -66 -139 -151 -308 -169 -333 -11 -15 -54 -85 -96
-156 l-76 -129 13 -51 c9 -35 12 -113 11 -256 l-2 -205 37 41 c20 22 54 63 74
90 41 55 245 357 266 393 115 199 224 417 291 581 29 69 58 138 66 153 8 16
15 37 15 47 0 9 11 42 25 73 14 30 32 79 41 109 8 29 23 82 34 118 10 36 25
90 34 120 32 111 84 367 113 557 6 35 1 39 -52 45 -16 1 -1011 1 -2210 -2z"/>
<path d="M1090 2391 c0 -4 10 -21 23 -37 26 -34 50 -66 96 -131 19 -26 48 -64
65 -84 17 -20 42 -49 56 -66 280 -332 637 -654 965 -870 39 -25 99 -65 135
-89 36 -23 88 -55 115 -69 28 -15 77 -42 110 -61 63 -36 380 -194 390 -194 3
0 24 -8 48 -19 104 -46 197 -83 252 -101 33 -10 98 -32 145 -48 47 -16 103
-32 125 -36 22 -4 74 -18 115 -32 41 -13 83 -24 93 -24 10 0 39 -6 65 -14 26
-8 79 -19 117 -25 430 -70 504 -76 865 -76 447 1 668 24 1055 110 157 35 194
45 280 75 50 17 108 36 130 41 22 6 83 26 135 46 52 20 117 44 143 53 97 35
358 160 587 282 104 55 182 111 168 120 -7 4 -153 8 -325 8 l-312 0 -73 -29
c-95 -38 -195 -79 -233 -96 -16 -7 -46 -18 -65 -24 -19 -5 -75 -24 -125 -40
-49 -16 -124 -39 -165 -50 -41 -12 -97 -28 -125 -35 -27 -8 -86 -22 -130 -31
-44 -9 -108 -22 -142 -30 -34 -8 -79 -15 -100 -15 -21 0 -56 -5 -78 -11 -45
-11 -358 -38 -543 -46 -237 -11 -721 40 -942 98 -19 5 -82 18 -140 29 -58 11
-130 29 -160 39 -30 10 -102 34 -160 51 -58 18 -118 39 -135 45 -16 7 -58 23
-93 35 -34 13 -65 27 -68 31 -3 5 -12 9 -21 9 -17 0 -40 10 -223 98 -74 35
-177 90 -230 121 -52 31 -113 65 -135 76 -22 11 -68 41 -103 68 -35 26 -76 54
-92 62 -15 8 -30 18 -32 23 -1 4 -21 19 -42 32 -54 33 -200 144 -234 177 -39
39 -91 84 -132 114 -19 14 -80 70 -135 123 -88 85 -162 136 -198 136 -6 0 -31
10 -56 21 -162 76 -264 127 -320 161 -34 21 -65 38 -67 38 -3 0 -28 16 -57 35
-49 33 -87 45 -87 26z"/>
</g>
</svg>
